<svg width="70" height="29" viewBox="0 0 70 29" fill="none" xmlns="http://www.w3.org/2000/svg">
<path fill-rule="evenodd" clip-rule="evenodd" d="M60.7975 17.5824L69.8881 12.4736V16.8124L60.7975 21.9212V17.5824ZM33.5239 12.4736L42.6145 7.36475V11.7054L33.5239 16.8124V12.4736ZM42.6145 17.5824V21.923L51.7051 16.8142V12.4736L42.6145 17.5824Z" fill="#266B5E"/>
<path fill-rule="evenodd" clip-rule="evenodd" d="M60.7975 17.5825L51.7069 12.4737V16.8125L60.7975 21.9213V17.5825ZM42.6145 17.5825L33.5239 12.4736V16.8124L42.6145 21.9213V17.5825Z" fill="#3DBB95"/>
<path fill-rule="evenodd" clip-rule="evenodd" d="M14.001 3.78714H13.2563C11.04 3.78714 8.38729 4.71946 6.42346 6.29917C4.86899 7.53445 3.78699 9.16286 3.78699 11.0005C3.78699 14.1761 5.07818 15.929 6.85265 16.8739C8.85254 17.9379 11.5611 18.1507 13.9127 18.1507H18.2785L19.7591 21.9376H13.9091C11.0977 21.9376 7.79579 21.6491 5.07277 20.2046C2.13695 18.6231 0 15.855 0 11.0005C0 7.8861 1.6771 5.26406 4.05929 3.35614C6.49199 1.41395 9.6929 0.205724 12.5295 0.0253906L14.001 3.78714Z" fill="#3A3E3D"/>
<path fill-rule="evenodd" clip-rule="evenodd" d="M19.4181 3.78345L26.525 21.9213H22.4639L15.3552 3.78345H19.4181Z" fill="#878585"/>
<path fill-rule="evenodd" clip-rule="evenodd" d="M31.0535 0L22.4624 21.9213H26.5253L35.1164 0H31.0535Z" fill="#3A3E3D"/>
<path fill-rule="evenodd" clip-rule="evenodd" d="M16.7709 28.5377C16.1953 28.5467 15.6735 28.2005 15.4581 27.6667C15.3853 27.4887 15.3486 27.2981 15.3499 27.1058C15.3485 26.9143 15.3846 26.7244 15.4563 26.5468C15.5953 26.2006 15.8666 25.9241 16.2101 25.7786C16.3937 25.701 16.5914 25.6623 16.7908 25.665C16.9076 25.6642 17.0241 25.6751 17.1388 25.6974C17.2379 25.7171 17.3347 25.7473 17.4273 25.7876C17.513 25.8247 17.5946 25.8707 17.6708 25.9247C17.7454 25.9795 17.816 26.0398 17.8818 26.105L17.568 26.4657C17.4601 26.3656 17.3387 26.2813 17.2073 26.215C17.0751 26.1496 16.9292 26.1168 16.7817 26.1194C16.6574 26.1193 16.5344 26.1457 16.4211 26.197C16.3106 26.2472 16.2113 26.3189 16.1289 26.4079C16.0455 26.4985 15.9806 26.6045 15.9378 26.7199C15.8921 26.8422 15.8688 26.9717 15.8693 27.1022C15.8686 27.2334 15.8919 27.3635 15.9378 27.4863C15.9806 27.6028 16.0455 27.71 16.1289 27.8019C16.211 27.8918 16.3103 27.9642 16.4211 28.0147C16.5344 28.066 16.6574 28.0924 16.7817 28.0923C16.9336 28.0965 17.0842 28.063 17.2199 27.9949C17.3512 27.9226 17.4724 27.8335 17.5806 27.7298L17.8944 28.049C17.8261 28.1217 17.7519 28.1887 17.6726 28.2491C17.5938 28.3091 17.5092 28.3611 17.4201 28.4042C17.3259 28.4492 17.2266 28.4825 17.1244 28.5034C17.0057 28.5274 16.8848 28.5388 16.7637 28.5377H16.7709ZM19.7482 28.0886C19.8785 28.09 20.0077 28.0636 20.1269 28.011C20.2388 27.9615 20.3394 27.8897 20.4227 27.8C20.5056 27.7091 20.5704 27.6032 20.6138 27.4881C20.661 27.3662 20.6848 27.2365 20.6841 27.1058C20.6847 26.9745 20.6608 26.8442 20.6138 26.7217C20.5275 26.4869 20.3499 26.297 20.1215 26.1951C19.7614 26.0311 19.3368 26.1153 19.0666 26.4043C18.9837 26.4952 18.9188 26.6011 18.8754 26.7162C18.8283 26.8382 18.8044 26.9678 18.8051 27.0985C18.8045 27.2298 18.8284 27.3601 18.8754 27.4827C18.9617 27.7174 19.1393 27.9073 19.3677 28.0092C19.4873 28.063 19.6171 28.0901 19.7482 28.0886ZM19.7482 28.5377C19.546 28.5402 19.3453 28.5016 19.1585 28.4241C18.9869 28.3527 18.8312 28.2479 18.7005 28.1157C18.572 27.9845 18.4703 27.8295 18.4011 27.6595C18.3287 27.4833 18.292 27.2945 18.2929 27.104C18.292 26.9136 18.3287 26.7248 18.4011 26.5486C18.471 26.3775 18.5739 26.2218 18.7041 26.0906C18.982 25.8113 19.3615 25.6571 19.7554 25.6632C19.9577 25.6606 20.1583 25.6993 20.3451 25.7768C20.6895 25.9197 20.9619 26.1953 21.1007 26.5414C21.1731 26.7176 21.2099 26.9063 21.2089 27.0968C21.2099 27.2873 21.1731 27.4761 21.1007 27.6522C21.0308 27.8234 20.9279 27.979 20.7977 28.1103C20.5198 28.3895 20.1403 28.5438 19.7464 28.5377H19.7482ZM21.8022 25.7046H22.2549L23.7444 27.6306V25.7028H24.2295V28.4926H23.8202L22.2873 26.5089V28.4926H21.8022V25.7028V25.7046ZM25.9264 28.5304C25.7159 28.531 25.507 28.4938 25.3097 28.4204C25.1097 28.344 24.926 28.2302 24.7687 28.085L25.0626 27.7352C25.1855 27.8439 25.3233 27.9344 25.472 28.0039C25.6198 28.0682 25.7796 28.1002 25.9408 28.0976C26.0681 28.1045 26.1943 28.0711 26.3015 28.0021C26.3866 27.9458 26.437 27.8498 26.4349 27.7478C26.4361 27.702 26.4275 27.6565 26.4097 27.6143C26.3878 27.5701 26.3549 27.5322 26.3141 27.5043C26.2552 27.4637 26.1908 27.4315 26.123 27.4088C26.019 27.373 25.913 27.3435 25.8056 27.3204C25.6709 27.2901 25.5384 27.251 25.4089 27.2032C25.3045 27.1655 25.2066 27.112 25.1185 27.0445C25.041 26.9837 24.9791 26.9051 24.9382 26.8155C24.8946 26.7123 24.8737 26.601 24.8769 26.4891C24.874 26.2647 24.972 26.0509 25.1438 25.9066C25.2322 25.8329 25.3337 25.7766 25.4431 25.7407C25.5658 25.7 25.6944 25.6799 25.8236 25.6812C26.0114 25.6785 26.1982 25.709 26.3754 25.7713C26.5419 25.8331 26.6972 25.9214 26.8353 26.0328L26.572 26.4025C26.4553 26.3157 26.3281 26.2442 26.1933 26.1897C26.0729 26.1413 25.9444 26.1162 25.8146 26.1158C25.6958 26.1087 25.5781 26.1424 25.481 26.2113C25.4062 26.266 25.362 26.3531 25.362 26.4458C25.3609 26.4941 25.3701 26.542 25.389 26.5864C25.4117 26.6324 25.4466 26.6711 25.49 26.6982C25.5537 26.7381 25.6221 26.7696 25.6938 26.792C25.7803 26.8209 25.8903 26.8515 26.0238 26.884C26.1562 26.9164 26.2863 26.9573 26.4133 27.0066C26.5158 27.0457 26.6109 27.1017 26.6946 27.1725C26.7671 27.235 26.8249 27.3125 26.8641 27.3997C26.9044 27.4949 26.9241 27.5976 26.9218 27.7009C26.9239 27.8214 26.8993 27.9409 26.8497 28.0507C26.8023 28.1526 26.7326 28.2426 26.6459 28.314C26.5539 28.389 26.4478 28.4448 26.334 28.4781C26.2034 28.5165 26.0679 28.5354 25.9318 28.534L25.9264 28.5304ZM28.1752 26.1483H27.2915V25.6938H29.5529V26.1483H28.6729V28.4926H28.1788V26.1483H28.1752ZM31.2733 27.0752C31.4232 27.0831 31.5711 27.0384 31.6917 26.949C31.7946 26.8665 31.8522 26.74 31.8468 26.6082C31.8558 26.4749 31.7992 26.3457 31.6953 26.2619C31.5699 26.1762 31.4195 26.1349 31.2679 26.1447H30.5466V27.0842L31.2733 27.0752ZM30.0687 25.6938H31.3112C31.4694 25.6912 31.6268 25.7162 31.7764 25.7677C31.9028 25.8113 32.0184 25.8814 32.1154 25.9733C32.1897 26.0501 32.2479 26.1408 32.2868 26.2402C32.3275 26.3466 32.3477 26.4599 32.3463 26.5738C32.3475 26.6788 32.3304 26.7831 32.2958 26.8822C32.2646 26.9707 32.2182 27.0531 32.1587 27.1256C32.0996 27.1971 32.0289 27.258 31.9495 27.306C31.8658 27.3563 31.7753 27.3946 31.6808 27.4196L32.4328 28.4745H31.8558L31.1687 27.5025H30.5538V28.4926H30.0687V25.7028V25.6938ZM34.0829 28.534C33.9167 28.5362 33.7515 28.5099 33.5942 28.4565C33.4538 28.4079 33.3262 28.3284 33.2209 28.2238C33.1143 28.1149 33.033 27.9837 32.9828 27.8397C32.9243 27.6686 32.8962 27.4886 32.8999 27.3077V25.7046H33.385V27.2879C33.3674 27.5014 33.4319 27.7136 33.5653 27.8812C33.7009 28.0209 33.8902 28.0952 34.0847 28.085C34.2763 28.0953 34.4635 28.0247 34.6004 27.8902C34.734 27.7276 34.7987 27.5192 34.7808 27.3095V25.7064H35.2658V27.2861C35.2691 27.47 35.2404 27.653 35.1811 27.8271C35.1298 27.9735 35.0474 28.107 34.9394 28.2184C34.8335 28.3245 34.7046 28.4048 34.5625 28.4529C34.4028 28.5066 34.2351 28.5328 34.0666 28.5304L34.0829 28.534ZM36.6436 26.1483H35.76V25.6938H38.0214V26.1483H37.1377V28.4926H36.6436V26.1483ZM39.8752 28.0779C40.0055 28.0793 40.1346 28.0529 40.2539 28.0003C40.3658 27.9508 40.4664 27.879 40.5496 27.7894C40.6325 27.6984 40.6974 27.5925 40.7408 27.4774C40.7879 27.3555 40.8118 27.2258 40.8111 27.0951C40.8116 26.9638 40.7878 26.8335 40.7408 26.711C40.6544 26.4762 40.4769 26.2863 40.2485 26.1844C39.8884 26.0204 39.4638 26.1046 39.1935 26.3936C39.1106 26.4845 39.0458 26.5904 39.0024 26.7056C38.9552 26.8275 38.9314 26.9572 38.932 27.0879C38.9315 27.2192 38.9553 27.3494 39.0024 27.472C39.0887 27.7067 39.2662 27.8966 39.4947 27.9985C39.6142 28.0523 39.7441 28.0794 39.8752 28.0779ZM39.8752 28.5268C39.673 28.5293 39.4723 28.4907 39.2855 28.4132C39.1139 28.3418 38.9582 28.237 38.8275 28.1048C38.699 27.9736 38.5973 27.8186 38.5281 27.6486C38.4557 27.4724 38.419 27.2836 38.4199 27.0931C38.419 26.9027 38.4557 26.7139 38.5281 26.5377C38.598 26.3666 38.7009 26.2109 38.8311 26.0797C39.109 25.8004 39.4885 25.6462 39.8824 25.6523C40.0847 25.6497 40.2853 25.6884 40.4721 25.7659C40.6438 25.8372 40.7995 25.9421 40.9301 26.0743C41.0586 26.2055 41.1603 26.3604 41.2295 26.5305C41.3019 26.7067 41.3387 26.8955 41.3377 27.0859C41.3387 27.2764 41.3019 27.4652 41.2295 27.6413C41.1596 27.8125 41.0567 27.9681 40.9265 28.0994C40.6486 28.3786 40.2691 28.5329 39.8752 28.5268ZM43.132 27.0733C43.2819 27.0811 43.4298 27.0365 43.5504 26.9471C43.6533 26.8646 43.7109 26.738 43.7054 26.6062C43.7144 26.473 43.6579 26.3438 43.554 26.26C43.4286 26.1743 43.2781 26.133 43.1266 26.1428H42.4052V27.0823L43.132 27.0733ZM41.9273 25.6919H43.1698C43.328 25.6894 43.4855 25.7144 43.6351 25.7659C43.7615 25.8094 43.8771 25.8795 43.9741 25.9715C44.0483 26.0482 44.1066 26.1389 44.1454 26.2384C44.1862 26.3448 44.2064 26.458 44.2049 26.572C44.2062 26.6769 44.1891 26.7813 44.1544 26.8803C44.1233 26.9688 44.0769 27.0512 44.0174 27.1238C43.9583 27.1952 43.8876 27.2562 43.8082 27.3041C43.7245 27.3545 43.634 27.3928 43.5395 27.4177L44.2915 28.4727H43.7144L43.0274 27.5007H42.4124V28.4925H41.9273V25.7028V25.6919ZM47.0344 28.0363C47.1705 28.0381 47.3057 28.0143 47.433 27.966C47.6626 27.8795 47.8443 27.699 47.9325 27.4701C47.9799 27.3501 48.0038 27.2221 48.0028 27.0932C48.0037 26.9636 47.9798 26.8351 47.9325 26.7145C47.889 26.6017 47.8227 26.4992 47.7377 26.4133C47.6507 26.3272 47.547 26.2597 47.433 26.2149C47.306 26.1656 47.1707 26.1411 47.0344 26.1428H46.4934V28.0453L47.0344 28.0363ZM45.9993 25.692H47.038C47.2423 25.6894 47.4454 25.7248 47.6367 25.7966C47.8107 25.8622 47.97 25.9614 48.1056 26.0887C48.2365 26.2127 48.3403 26.3625 48.4103 26.5287C48.4823 26.7 48.5191 26.8839 48.5185 27.0697C48.5187 27.2554 48.4819 27.4393 48.4103 27.6107C48.3406 27.7776 48.2368 27.9281 48.1056 28.0525C47.9697 28.1798 47.8105 28.2797 47.6367 28.3465C47.4457 28.42 47.2426 28.4567 47.038 28.4547H45.9849V25.7028L45.9993 25.692ZM49.1118 25.692H51.173V26.1483H49.5915V26.8696H50.9891V27.3114H49.5915V28.0562H51.1875V28.4926H49.1046V25.7029L49.1118 25.692ZM52.7329 25.692H53.2739L54.0999 27.8452L54.9348 25.7047H55.465L54.3073 28.5107H53.8781L52.7203 25.7047L52.7329 25.692ZM55.9573 25.692H58.0131V26.1483H56.4442V26.8696H57.8418V27.3114H56.4442V28.0562H58.0402V28.4926H55.9501V25.7029L55.9573 25.692ZM58.6244 25.692H59.077L60.5666 27.618V25.7029H61.0517V28.4926H60.6423L59.1095 26.509V28.4926H58.6244V25.7029V25.692ZM62.8027 28.0363C62.9388 28.0381 63.074 28.0143 63.2012 27.966C63.3155 27.9225 63.4193 27.8555 63.506 27.7694C63.5906 27.684 63.6569 27.5821 63.7007 27.4701C63.7482 27.3501 63.7721 27.2221 63.7711 27.0932C63.7719 26.9636 63.7481 26.8351 63.7007 26.7145C63.6572 26.6017 63.5909 26.4992 63.506 26.4133C63.4189 26.3272 63.3152 26.2597 63.2012 26.2149C63.0742 26.1656 62.9389 26.1411 62.8027 26.1428H62.2617V28.0453L62.8027 28.0363ZM61.7676 25.692H62.8063C63.0106 25.6894 63.2137 25.7248 63.405 25.7966C63.579 25.8622 63.7383 25.9614 63.8739 26.0887C64.0048 26.2127 64.1086 26.3625 64.1786 26.5287C64.2506 26.7 64.2874 26.8839 64.2868 27.0697C64.287 27.2554 64.2502 27.4393 64.1786 27.6107C64.1089 27.7776 64.0051 27.9281 63.8739 28.0525C63.738 28.1798 63.5788 28.2797 63.405 28.3465C63.214 28.42 63.0109 28.4567 62.8063 28.4547H61.7676V25.7028V25.692ZM66.568 27.3709L66.0865 26.2564L65.6087 27.3709H66.568ZM65.8684 25.6721H66.3228L67.5491 28.4781H67.0315L66.7484 27.8054H65.4302L65.1362 28.4925H64.6349L65.8612 25.6865L65.8684 25.6721ZM69.0044 28.5178C68.7939 28.5183 68.585 28.4811 68.3876 28.4078C68.1876 28.3313 68.004 28.2175 67.8466 28.0723L68.1406 27.7225C68.2635 27.8312 68.4013 27.9217 68.5499 27.9912C68.6977 28.0556 68.8576 28.0875 69.0188 28.085C69.1461 28.0918 69.2723 28.0584 69.3795 27.9894C69.4646 27.9331 69.515 27.8371 69.5129 27.7351C69.5141 27.6893 69.5055 27.6439 69.4877 27.6017C69.4658 27.5574 69.4328 27.5195 69.3921 27.4917C69.3332 27.451 69.2688 27.4189 69.201 27.3961C69.097 27.3603 68.991 27.3308 68.8836 27.3077C68.7489 27.2774 68.6163 27.2383 68.4868 27.1905C68.3825 27.1528 68.2846 27.0993 68.1965 27.0318C68.1189 26.971 68.0571 26.8924 68.0162 26.8028C67.9726 26.6996 67.9517 26.5883 67.9548 26.4764C67.952 26.252 68.05 26.0382 68.2217 25.8939C68.3102 25.8202 68.4117 25.7639 68.5211 25.728C68.6438 25.6873 68.7723 25.6672 68.9016 25.6685C69.0894 25.6658 69.2762 25.6964 69.4534 25.7587C69.6198 25.8204 69.7752 25.9087 69.9133 26.0201L69.65 26.3898C69.5333 26.3031 69.4061 26.2316 69.2713 26.177C69.1509 26.1286 69.0224 26.1035 68.8926 26.1031C68.7737 26.0961 68.656 26.1298 68.559 26.1987C68.4842 26.2533 68.4399 26.3404 68.4399 26.4331C68.4388 26.4814 68.4481 26.5293 68.467 26.5738C68.4896 26.6197 68.5246 26.6584 68.568 26.6856C68.6316 26.7254 68.7001 26.7569 68.7718 26.7793C68.8583 26.8082 68.9683 26.8389 69.1018 26.8713C69.2341 26.9037 69.3642 26.9447 69.4913 26.9939C69.5937 27.033 69.6889 27.0891 69.7726 27.1598C69.845 27.2223 69.9029 27.2999 69.9421 27.3871C69.9824 27.4823 70.0021 27.5849 69.9998 27.6882C70.0019 27.8087 69.9772 27.9282 69.9277 28.0381C69.8802 28.1399 69.8106 28.2299 69.7239 28.3014C69.6319 28.3763 69.5258 28.4321 69.4119 28.4655C69.2777 28.5075 69.1378 28.5288 68.9972 28.5286L69.0044 28.5178Z" fill="#3A3E3D"/>
</svg>
